<mxfile host="app.diagrams.net" modified="2023-04-17T12:28:42.555Z" agent="Mozilla/5.0 (X11; Linux x86_64; rv:102.0) Gecko/20100101 Firefox/102.0" etag="5_MegHV4Na0pgPtCaQgs" version="21.1.5" type="device">
  <diagram name="Página-1" id="AvLUnw90TaFhlQHaY8LK">
    <mxGraphModel dx="880" dy="483" grid="1" gridSize="10" guides="1" tooltips="1" connect="1" arrows="1" fold="1" page="1" pageScale="1" pageWidth="827" pageHeight="1169" math="0" shadow="0">
      <root>
        <mxCell id="0" />
        <mxCell id="1" parent="0" />
        <mxCell id="fa17FrxS2slasOr03Wy3-6" value="" style="rounded=0;orthogonalLoop=1;jettySize=auto;html=1;entryX=0;entryY=0.5;entryDx=0;entryDy=0;" edge="1" parent="1" source="4d2zQpIDs25eRN6ht3no-1" target="UGCbJAfQarozqtcSAT-0-1">
          <mxGeometry relative="1" as="geometry" />
        </mxCell>
        <mxCell id="4d2zQpIDs25eRN6ht3no-1" value="&lt;div&gt;&lt;b&gt;S2I&lt;/b&gt;&lt;/div&gt;&lt;div&gt;&lt;b&gt;Docker&lt;/b&gt;&lt;/div&gt;&lt;div&gt;&lt;b&gt;Custom&lt;/b&gt;&lt;/div&gt;&lt;div&gt;&lt;b&gt;Pipeline&lt;br&gt;&lt;/b&gt;&lt;/div&gt;" style="rounded=1;whiteSpace=wrap;html=1;fillColor=#fff2cc;strokeColor=#d6b656;" parent="1" vertex="1">
          <mxGeometry x="20" y="190" width="120" height="80" as="geometry" />
        </mxCell>
        <mxCell id="4d2zQpIDs25eRN6ht3no-6" value="&lt;b&gt;Imagen&lt;/b&gt;" style="rounded=1;whiteSpace=wrap;html=1;fillColor=#fff2cc;strokeColor=#d6b656;" parent="1" vertex="1">
          <mxGeometry x="550" y="275" width="120" height="60" as="geometry" />
        </mxCell>
        <mxCell id="4d2zQpIDs25eRN6ht3no-10" value="&lt;br&gt;&lt;div align=&quot;left&quot;&gt;&lt;font size=&quot;1&quot;&gt;&lt;b style=&quot;font-size: 22px;&quot;&gt;BuildConfig&lt;/b&gt;&lt;/font&gt;&lt;br&gt;&lt;/div&gt;" style="text;strokeColor=none;align=left;fillColor=none;html=1;verticalAlign=middle;whiteSpace=wrap;rounded=0;" parent="1" vertex="1">
          <mxGeometry x="30" y="110" width="60" height="30" as="geometry" />
        </mxCell>
        <mxCell id="UGCbJAfQarozqtcSAT-0-1" value="&lt;div&gt;&lt;b&gt;Construcción automática de imagen&lt;/b&gt;&lt;/div&gt;&lt;div&gt;&lt;b&gt;(BuildConfig, Build)&lt;/b&gt;&lt;br&gt;&lt;/div&gt;" style="rounded=1;whiteSpace=wrap;html=1;fillColor=#fff2cc;strokeColor=#d6b656;labelPosition=center;verticalLabelPosition=bottom;align=center;verticalAlign=top;" parent="1" vertex="1">
          <mxGeometry x="249" y="245" width="140" height="110" as="geometry" />
        </mxCell>
        <mxCell id="fa17FrxS2slasOr03Wy3-8" value="" style="rounded=0;orthogonalLoop=1;jettySize=auto;html=1;entryX=0;entryY=0.5;entryDx=0;entryDy=0;exitX=1;exitY=0.5;exitDx=0;exitDy=0;" edge="1" parent="1" source="UGCbJAfQarozqtcSAT-0-2" target="UGCbJAfQarozqtcSAT-0-1">
          <mxGeometry relative="1" as="geometry">
            <mxPoint x="240" y="430" as="targetPoint" />
          </mxGeometry>
        </mxCell>
        <mxCell id="UGCbJAfQarozqtcSAT-0-2" value="&lt;div&gt;&lt;b&gt;Git&lt;/b&gt;&lt;/div&gt;&lt;div&gt;&lt;b&gt;Dockerfile&lt;/b&gt;&lt;/div&gt;&lt;div&gt;&lt;b&gt;Binario&lt;/b&gt;&lt;br&gt;&lt;/div&gt;" style="rounded=1;whiteSpace=wrap;html=1;fillColor=#fff2cc;strokeColor=#d6b656;" parent="1" vertex="1">
          <mxGeometry x="20" y="340" width="120" height="60" as="geometry" />
        </mxCell>
        <mxCell id="UGCbJAfQarozqtcSAT-0-5" value="&lt;b&gt;Imágenes&lt;/b&gt;" style="text;strokeColor=none;align=center;fillColor=none;html=1;verticalAlign=middle;whiteSpace=wrap;rounded=0;" parent="1" vertex="1">
          <mxGeometry x="30" y="150" width="60" height="30" as="geometry" />
        </mxCell>
        <mxCell id="UGCbJAfQarozqtcSAT-0-21" value="Creación" style="html=1;shadow=0;dashed=0;align=center;verticalAlign=middle;shape=mxgraph.arrows2.arrow;dy=0.6;dx=40;notch=0;fillColor=#ffe6cc;strokeColor=#d79b00;" parent="1" vertex="1">
          <mxGeometry x="400" y="270" width="136" height="70" as="geometry" />
        </mxCell>
        <mxCell id="fa17FrxS2slasOr03Wy3-1" value="" style="sketch=0;pointerEvents=1;shadow=0;dashed=0;html=1;strokeColor=none;fillColor=#434445;aspect=fixed;labelPosition=center;verticalLabelPosition=bottom;verticalAlign=top;align=center;outlineConnect=0;shape=mxgraph.vvd.vrealize_automation;" vertex="1" parent="1">
          <mxGeometry x="284" y="275" width="50" height="50" as="geometry" />
        </mxCell>
        <mxCell id="fa17FrxS2slasOr03Wy3-2" style="edgeStyle=orthogonalEdgeStyle;rounded=0;orthogonalLoop=1;jettySize=auto;html=1;exitX=0.5;exitY=1;exitDx=0;exitDy=0;" edge="1" parent="1" source="UGCbJAfQarozqtcSAT-0-1" target="UGCbJAfQarozqtcSAT-0-1">
          <mxGeometry relative="1" as="geometry" />
        </mxCell>
        <mxCell id="fa17FrxS2slasOr03Wy3-3" value="" style="sketch=0;pointerEvents=1;shadow=0;dashed=0;html=1;strokeColor=none;fillColor=#434445;aspect=fixed;labelPosition=center;verticalLabelPosition=bottom;verticalAlign=top;align=center;outlineConnect=0;shape=mxgraph.vvd.vrealize_automation;" vertex="1" parent="1">
          <mxGeometry x="330" y="300" width="30" height="30" as="geometry" />
        </mxCell>
        <mxCell id="fa17FrxS2slasOr03Wy3-4" value="&lt;b&gt;Estrategias de Construcción&lt;/b&gt;" style="text;strokeColor=none;align=center;fillColor=none;html=1;verticalAlign=middle;whiteSpace=wrap;rounded=0;" vertex="1" parent="1">
          <mxGeometry x="50" y="285" width="60" height="30" as="geometry" />
        </mxCell>
        <mxCell id="fa17FrxS2slasOr03Wy3-5" value="&lt;b&gt;Tipos de Construcción&lt;/b&gt;" style="text;strokeColor=none;align=center;fillColor=none;html=1;verticalAlign=middle;whiteSpace=wrap;rounded=0;" vertex="1" parent="1">
          <mxGeometry x="50" y="410" width="60" height="30" as="geometry" />
        </mxCell>
      </root>
    </mxGraphModel>
  </diagram>
</mxfile>
